<?xml version="1.0" encoding="UTF-8"?>
<svg version="1.1" xmlns="http://www.w3.org/2000/svg" width="1024" height="1024">
<path d="M0 0 C8.29831917 5.27329777 16.41263437 10.75666018 24.12060547 16.8684082 C29.74118193 21.31607499 35.44629989 24.92812402 41.82763672 28.21826172 C64.16187125 40.07219485 84.48902695 56.20973752 103.25732422 73.03857422 C103.95027588 73.64942871 104.64322754 74.2602832 105.35717773 74.88964844 C111.85002923 80.65339962 118.06208506 86.65710467 124.19848633 92.79443359 C125.81622614 94.40998102 127.44183058 96.01732456 129.06787109 97.62451172 C134.81916627 103.34509806 140.19549921 109.18050981 145.25341797 115.5378418 C147.06989895 117.80468082 148.94461637 119.98517228 150.87841797 122.15185547 C187.68209027 163.84293697 214.69008608 217.31311254 231.63232422 269.97607422 C231.86721558 270.70534119 232.10210693 271.43460815 232.34411621 272.18597412 C258.57046851 354.05221532 263.26718322 442.73427092 241.25732422 578.03857422 C240.54862686 578.04666107 239.8399295 578.05474792 239.10975647 578.06307983 C232.30384449 578.14227644 225.49808263 578.22989568 218.6923914 578.3261013 C215.19673871 578.3752424 211.70110511 578.42154925 208.20532227 578.46044922 C174.76467105 578.75868819 174.76467105 578.75868819 141.69482422 583.28857422 C140.61894043 583.50400879 139.54305664 583.71944336 138.43457031 583.94140625 C120.523346 587.70440412 101.499088 594.42829497 90.90576172 610.20263672 C84.48632613 621.24649984 84.45896463 631.73243665 86.25732422 644.03857422 C75.21539103 644.13225479 64.17355608 644.20282715 53.13130283 644.24582291 C48.00104558 644.26648385 42.87106493 644.29439549 37.7409668 644.34033203 C-4.13940065 644.70574036 -4.13940065 644.70574036 -24.45736694 640.45115662 C-36.86986697 638.21024329 -49.47529764 640.66746578 -61.74414062 642.70263672 C-62.8651416 642.88697266 -63.98614258 643.07130859 -65.14111328 643.26123047 C-66.6519751 643.52045288 -66.6519751 643.52045288 -68.19335938 643.78491211 C-70.74267578 644.03857422 -70.74267578 644.03857422 -73.74267578 643.03857422 C-75.2830782 642.94124978 -76.82730481 642.89938644 -78.37075806 642.8914032 C-79.32108917 642.88424789 -80.27142029 642.87709259 -81.25054932 642.86972046 C-82.29160828 642.86703156 -83.33266724 642.86434265 -84.40527344 642.86157227 C-85.50316193 642.85500107 -86.60105042 642.84842987 -87.73220825 642.84165955 C-91.37371893 642.82191359 -95.01518832 642.81025994 -98.65673828 642.80029297 C-100.52232958 642.79417968 -100.52232958 642.79417968 -102.42560959 642.78794289 C-108.33148061 642.76922713 -114.23733851 642.75466418 -120.14323199 642.74633092 C-126.94528009 642.73657332 -133.74700149 642.71029221 -140.54893458 642.66983002 C-146.4515653 642.63593139 -152.35411682 642.62417756 -158.25684738 642.62012672 C-160.76140938 642.61526093 -163.26596789 642.60364724 -165.77046585 642.58508873 C-169.2818102 642.5606904 -172.79230741 642.56166436 -176.30371094 642.56860352 C-177.33262451 642.55579346 -178.36153809 642.5429834 -179.42163086 642.52978516 C-185.30636176 642.57203121 -189.57191469 643.38958861 -194.78545189 646.18009663 C-196.74267578 647.03857422 -196.74267578 647.03857422 -200.74267578 647.03857422 C-201.40267578 645.71857422 -202.06267578 644.39857422 -202.74267578 643.03857422 C-203.40267578 643.03857422 -204.06267578 643.03857422 -204.74267578 643.03857422 C-206.22711263 641.30264187 -207.62729769 639.49462762 -208.99267578 637.66357422 C-209.88904718 636.4728945 -210.78622981 635.2828252 -211.68408203 634.09326172 C-212.17150879 633.44454102 -212.65893555 632.79582031 -213.16113281 632.12744141 C-216.04545947 628.31788616 -218.99136021 624.55614522 -221.93017578 620.78857422 C-223.62873399 618.60697951 -225.3268889 616.42565712 -227.00976562 614.23193359 C-228.21973295 612.70046749 -229.47434666 611.20369402 -230.76074219 609.73583984 C-235.70060965 603.95246094 -235.70060965 603.95246094 -235.89892578 599.64404297 C-235.32658203 597.85933594 -235.32658203 597.85933594 -234.74267578 596.03857422 C-234.50677734 595.25434082 -234.27087891 594.47010742 -234.02783203 593.66210938 C-233.16186814 590.8668898 -232.21537979 588.11092518 -231.24267578 585.35107422 C-230.88592773 584.33722656 -230.52917969 583.32337891 -230.16162109 582.27880859 C-226.5673657 572.26244151 -222.4011167 562.60253558 -217.74267578 553.03857422 C-217.29939941 552.1260791 -216.85612305 551.21358398 -216.39941406 550.2734375 C-209.26633661 535.75155444 -201.08261299 522.24300948 -191.74267578 509.03857422 C-191.3135791 508.42949219 -190.88448242 507.82041016 -190.44238281 507.19287109 C-177.19798586 488.55631085 -161.10215856 470.89316519 -143.74267578 456.03857422 C-142.83001953 455.23677734 -141.91736328 454.43498047 -140.97705078 453.60888672 C-122.8923218 437.84592465 -102.60680692 424.58345728 -81.59619141 413.05566406 C-80.30054709 412.34469802 -79.00779924 411.62843941 -77.71728516 410.90820312 C-67.90117632 405.44860665 -57.95172329 400.79296566 -47.55517578 396.53857422 C-25.53785596 387.44145486 -4.6274805 374.42460896 5.19482422 351.66357422 C9.00445458 342.08138531 9.55656147 333.48146295 5.71044922 323.81201172 C-1.71832238 309.63344227 -17.19705017 302.07333144 -31.66201782 296.90579224 C-37.014988 295.39890889 -42.34635126 295.26702955 -47.87939453 295.09716797 C-49.73501762 295.01644798 -49.73501762 295.01644798 -51.62812805 294.93409729 C-55.56167282 294.76487782 -59.49558228 294.61864423 -63.43017578 294.47607422 C-139.02276689 291.58377832 -139.02276689 291.58377832 -156.30517578 273.39404297 C-158.03177008 271.37804793 -159.5529493 269.41802718 -160.74267578 267.03857422 C-162.44909561 266.372867 -164.1841998 265.7797913 -165.93017578 265.22607422 C-172.21973951 263.01534559 -176.06670626 260.87038479 -179.55517578 254.97607422 C-182.37403476 248.00310727 -182.53854014 241.5778357 -179.98876953 234.44091797 C-177.47670803 229.59791539 -173.55259566 225.88209127 -169.74267578 222.03857422 C-169.22833984 221.48685547 -168.71400391 220.93513672 -168.18408203 220.36669922 C-166.44409411 218.52372136 -165.05785167 217.16476418 -162.68408203 216.21435547 C-160.5569875 215.20208311 -160.5569875 215.20208311 -159.97705078 212.95654297 C-159.81720703 212.05548828 -159.65736328 211.15443359 -159.49267578 210.22607422 C-152.65724478 179.77404827 -136.12053463 151.1299663 -116.74267578 127.03857422 C-117.3777002 127.35608643 -118.01272461 127.67359863 -118.66699219 128.00073242 C-133.34423828 135.33935547 -133.34423828 135.33935547 -136.19287109 136.75976562 C-137.70695191 137.51912557 -139.21799474 138.28467547 -140.72216797 139.06347656 C-144.5423157 141.03857422 -144.5423157 141.03857422 -146.74267578 141.03857422 C-146.1786026 135.84104272 -144.48085424 131.92450664 -142.11767578 127.35107422 C-141.75867188 126.64772949 -141.39966797 125.94438477 -141.02978516 125.21972656 C-128.70918158 101.4314007 -109.57278852 79.78619836 -83.38476562 71.27197266 C-71.45351898 67.7421281 -60.27381911 65.8676492 -47.80517578 65.91357422 C-46.75910156 65.90970703 -45.71302734 65.90583984 -44.63525391 65.90185547 C-38.90889515 65.90905391 -33.40536812 66.17997105 -27.74267578 67.03857422 C-32.09588063 48.6516111 -40.64809098 31.90903123 -50.74267578 16.03857422 C-51.1189209 15.44463867 -51.49516602 14.85070312 -51.8828125 14.23876953 C-59.72343149 2.01917348 -70.09402291 -11.96933428 -83.74267578 -17.96142578 C-83.68017578 -20.27392578 -83.68017578 -20.27392578 -82.74267578 -22.96142578 C-60.63422507 -36.8993621 -18.63507162 -11.62409758 0 0 Z " fill="#44BAC4" transform="translate(373.74267578125,194.96142578125)"/>
<path d="M0 0 C12.24799275 3.87853104 22.19427238 11.70682885 30.75 21.1875 C30.75 21.8475 30.75 22.5075 30.75 23.1875 C31.41 23.1875 32.07 23.1875 32.75 23.1875 C33.99584961 24.57006836 33.99584961 24.57006836 35.40234375 26.52734375 C35.92610596 27.25236084 36.44986816 27.97737793 36.98950195 28.72436523 C37.54984131 29.51657471 38.11018066 30.30878418 38.6875 31.125 C39.26653076 31.93461182 39.84556152 32.74422363 40.44213867 33.57836914 C44.78014368 39.69335965 48.88837341 45.93638334 52.92211914 52.25463867 C56.64574731 58.07525383 60.51496467 63.72134975 64.75 69.1875 C65.4925 70.156875 66.235 71.12625 67 72.125 C70.55744314 74.79308236 74.15183222 75.68143062 78.375 76.98046875 C89.80157459 81.06705619 99.41890764 88.63488776 108.75 96.1875 C109.65105469 96.89519531 110.55210937 97.60289062 111.48046875 98.33203125 C119.01936517 104.33419546 126.16427309 110.82670447 133.02929688 117.58886719 C134.68394499 119.20814704 134.68394499 119.20814704 136.50195312 120.37207031 C139.79163312 122.810971 140.64742735 124.55308568 141.31079102 128.65600586 C141.63693303 132.95637588 141.63435184 137.25223496 141.625 141.5625 C141.6431399 143.07685758 141.66394667 144.5911857 141.6875 146.10546875 C141.73917723 149.79964224 141.75444289 153.49291879 141.75 157.1875 C142.31412598 157.36418213 142.87825195 157.54086426 143.45947266 157.72290039 C148.54798197 159.36058768 153.35496131 161.21527029 158.125 163.625 C158.79926025 163.96499023 159.47352051 164.30498047 160.16821289 164.65527344 C186.96641353 178.5082956 212.15108536 197.81628478 234.3984375 218.05078125 C238.65177897 221.9155284 242.92871834 225.74741683 247.4375 229.3125 C250.06722739 231.4447114 252.38633171 233.76474 254.75 236.1875 C255.51570313 236.93128906 256.28140625 237.67507813 257.0703125 238.44140625 C259.95422681 241.39678783 262.5654732 244.45243827 265.125 247.6875 C265.58777344 248.24308594 266.05054688 248.79867187 266.52734375 249.37109375 C268.45935804 251.82215665 269.72112794 253.54434988 269.86328125 256.7109375 C268.33350299 260.11402318 266.09741603 262.63397212 263.5625 265.3125 C262.85770508 266.09947266 262.85770508 266.09947266 262.13867188 266.90234375 C258.15408678 271.19678062 254.1625649 273.55021871 248.4375 275.0625 C242.52068492 275.26307 237.64439906 273.45043271 232.75 270.1875 C235.93179075 275.09276075 239.20108338 276.90620471 244.75 278.1875 C249.49714516 278.67643817 254.08351005 278.12079799 258.75 277.1875 C256.5411126 291.19385417 244.63970657 303.86208854 233.75 312.1875 C207.68329394 330.72616949 174.74454276 333.56120486 143.78955078 328.95068359 C135.08583262 327.48118837 126.61138117 325.47447415 118.12109375 323.0703125 C98.66234341 317.97450998 77.6966791 318.5043747 59.82421875 328.1640625 C52.33726809 333.09194108 47.2734131 339.54206019 45.25390625 348.3515625 C43.25463095 361.00676906 48.00550015 371.82566584 54.57910156 382.31738281 C95.51542599 447.69941891 106.23433623 527.48343136 89.02978516 602.3203125 C87.46642154 608.67010285 85.66436777 614.93565722 83.75 621.1875 C83.52763672 621.93402832 83.30527344 622.68055664 83.07617188 623.44970703 C80.48085603 632.09365823 77.29438659 640.3303265 73.65844727 648.59130859 C66.44967583 664.9902167 60.8822171 682.01255973 60.64453125 700.09765625 C60.62970703 700.94263672 60.61488281 701.78761719 60.59960938 702.65820312 C60.57481629 704.38980431 60.56969411 706.12179592 60.58398438 707.85351562 C60.56271484 708.69720703 60.54144531 709.54089844 60.51953125 710.41015625 C60.51542236 711.16047119 60.51131348 711.91078613 60.50708008 712.68383789 C59.25434795 716.82662022 57.29384041 719.65622209 53.75 722.1875 C49.27510943 723.21437544 44.88217719 723.07222036 40.30908203 722.98217773 C38.93875734 722.98020154 37.56842525 722.98131482 36.19810486 722.98527527 C32.48924669 722.98727937 28.78198128 722.94620032 25.07349253 722.89725757 C21.19384296 722.85342317 17.31415465 722.84938061 13.43429565 722.84107971 C6.09241421 722.81934459 -1.24873541 722.76193185 -8.59029496 722.69163328 C-16.95050998 722.61332275 -25.31076042 722.57488662 -33.67125106 722.53976524 C-50.8645903 722.46664656 -68.05721771 722.34356551 -85.25 722.1875 C-85.02009369 721.11884705 -84.79018738 720.05019409 -84.55331421 718.94915771 C-83.6848806 714.90623607 -82.82282576 710.8619745 -81.9624939 706.81732178 C-81.59239195 705.08152902 -81.22066098 703.34608264 -80.84713745 701.61102295 C-72.55749274 663.08208091 -70.02006044 623.78925752 -70.0625 584.4375 C-70.06277191 583.47315033 -70.06304382 582.50880066 -70.06332397 581.51522827 C-70.16298514 503.83134159 -83.9108576 424.77261803 -117.25 354.1875 C-118.11386797 352.3244907 -118.97715339 350.46121115 -119.83984375 348.59765625 C-132.70159196 321.01317479 -148.25860974 295.21682609 -166.1159668 270.57641602 C-169.15436945 266.3787611 -169.15436945 266.3787611 -170.25 264.1875 C-169.81616211 261.859375 -169.81616211 261.859375 -169.02734375 258.9375 C-168.73939941 257.86330811 -168.45145508 256.78911621 -168.15478516 255.68237305 C-167.83558105 254.52906494 -167.51637695 253.37575684 -167.1875 252.1875 C-166.70095947 250.41596558 -166.70095947 250.41596558 -166.20458984 248.60864258 C-159.85890701 225.77754043 -151.34468198 204.14768436 -140.25 183.1875 C-139.91033203 182.54006836 -139.57066406 181.89263672 -139.22070312 181.22558594 C-121.78580218 148.25511683 -95.17217297 116.42661325 -62.25 98.1875 C-61.59 98.1875 -60.93 98.1875 -60.25 98.1875 C-60.21334229 97.58309082 -60.17668457 96.97868164 -60.13891602 96.35595703 C-59.63592853 89.89856762 -58.2934973 84.17443913 -56.1875 78.0625 C-55.87659424 77.15089111 -55.56568848 76.23928223 -55.24536133 75.30004883 C-46.10609574 49.28969441 -29.86997376 27.5110491 -10.86767578 7.86254883 C-9.77138987 6.72738167 -8.68669069 5.58093028 -7.61279297 4.42456055 C-3.61269461 0.20842469 -3.61269461 0.20842469 0 0 Z " fill="#1D75BC" transform="translate(728.25,50.8125)"/>
<path d="M0 0 C10.80183396 34.41292234 15.44654501 72.0041387 16 108 C16.01514648 108.85480957 16.03029297 109.70961914 16.04589844 110.59033203 C16.13927764 116.72944491 16.10895704 122.86131412 16 129 C15.98743164 129.81210937 15.97486328 130.62421875 15.96191406 131.4609375 C14.8218722 189.71940313 1.57101464 247.9814799 -21.80615234 301.27734375 C-22.95499698 303.89736734 -24.08223495 306.52583278 -25.20703125 309.15625 C-39.18285762 341.43675428 -58.31985793 371.27079074 -79.61425781 399.16748047 C-80.98863943 400.98497667 -82.33787329 402.81851873 -83.6796875 404.66015625 C-84.09444336 405.22613525 -84.50919922 405.79211426 -84.93652344 406.37524414 C-86.04707752 407.89347287 -87.15263605 409.41535222 -88.2578125 410.9375 C-88.83273437 411.618125 -89.40765625 412.29875 -90 413 C-90.66 413 -91.32 413 -92 413 C-92.23332031 413.55171875 -92.46664062 414.1034375 -92.70703125 414.671875 C-94.34019284 417.61255267 -96.39339207 419.79077251 -98.6875 422.25 C-99.93080078 423.58804688 -99.93080078 423.58804688 -101.19921875 424.953125 C-101.64885986 425.436604 -102.09850098 425.92008301 -102.56176758 426.41821289 C-104.11666089 428.1283052 -105.61457499 429.88055025 -107.1171875 431.63671875 C-111.49415723 436.65783282 -116.19801188 441.34814914 -120.9152832 446.0456543 C-122.43491668 447.5599258 -123.94912517 449.0794743 -125.46289062 450.59960938 C-130.80224092 455.94299509 -136.22844935 461.12081679 -142 466 C-143.05627389 466.91243139 -144.11227826 467.82517492 -145.16796875 468.73828125 C-152.59673442 475.07147216 -160.17019773 481.16774505 -168 487 C-168.66628418 487.49757813 -169.33256836 487.99515625 -170.01904297 488.5078125 C-181.33371825 496.91936327 -192.96828951 504.65522661 -205 512 C-205.67788574 512.41813965 -206.35577148 512.8362793 -207.05419922 513.26708984 C-267.0479836 550.16007529 -334.27382279 570.78741981 -404 578 C-405.09876465 578.1141626 -406.1975293 578.2283252 -407.32958984 578.34594727 C-418.46143293 579.31203283 -429.64419323 579.18606945 -440.80908203 579.18530273 C-444.33248263 579.1874738 -447.85556139 579.20564017 -451.37890625 579.22460938 C-466.35057897 579.26223784 -481.11065345 578.57294526 -496 577 C-496.7181488 576.92429779 -497.43629761 576.84859558 -498.1762085 576.77059937 C-502.21122762 576.33251193 -506.23102372 575.81552199 -510.25 575.25 C-511.45052002 575.08153564 -512.65104004 574.91307129 -513.88793945 574.73950195 C-568.79376819 566.69515127 -622.53946325 547.95681662 -671 521 C-671.60440918 520.66387695 -672.20881836 520.32775391 -672.83154297 519.98144531 C-694.48651913 507.77335301 -716.21721028 493.28220652 -735 477 C-735 476.67 -735 476.34 -735 476 C-583.53 476 -432.06 476 -276 476 C-276 469.07 -276 462.14 -276 455 C-277.81640488 455.01110306 -279.63280975 455.02220612 -281.5042572 455.03364563 C-298.67264863 455.13526978 -315.84097866 455.21038588 -333.00960445 455.25906086 C-341.83489571 455.28475106 -350.65996118 455.31972391 -359.48510742 455.37719727 C-367.18461271 455.42731568 -374.88395433 455.4593576 -382.58361822 455.47044247 C-386.65381599 455.47691359 -390.7235459 455.49192596 -394.79359245 455.52865028 C-427.45622587 455.81174516 -427.45622587 455.81174516 -441 450 C-441.64388609 449.72638956 -442.28777218 449.45277912 -442.95116997 449.17087746 C-453.05499779 444.8343792 -462.76255879 439.03183603 -468 429 C-469.76341844 423.64823008 -469.73650851 418.01570751 -467.8125 412.75 C-460.62872755 401.85048318 -449.23225711 397.8299718 -437 395 C-428.72844359 393.36031186 -420.37515859 391.98771598 -412 391 C-411.2963157 390.91578702 -410.5926314 390.83157404 -409.86762333 390.74480915 C-398.78586666 389.62125824 -387.65771547 389.88717862 -376.53393555 389.92163086 C-374.15931776 389.92515126 -371.78469909 389.92811698 -369.41007996 389.93057251 C-364.31597544 389.93622428 -359.22188178 389.94422532 -354.12778282 389.95359612 C-346.07230058 389.96681687 -338.01686833 389.96516202 -329.96138 389.95936584 C-329.28199653 389.95890731 -328.60261306 389.95844877 -327.90264221 389.95797633 C-324.4303014 389.95562758 -320.95796074 389.95310948 -317.48562014 389.95046723 C-310.35231155 389.94504318 -303.21900336 389.9399616 -296.08569336 389.93676758 C-295.37058678 389.93644095 -294.65548019 389.93611432 -293.91870371 389.93577779 C-282.31024496 389.93125931 -270.70195159 389.95210475 -259.09353473 389.98128145 C-247.15445131 390.01061738 -235.21563691 390.00954276 -223.27655059 389.98107058 C-216.58102122 389.96603341 -209.8862218 389.96637513 -203.19074059 390.00047112 C-196.90057003 390.032234 -190.61153132 390.02689612 -184.32138252 389.99296951 C-182.01351081 389.98714519 -179.7055579 389.99501138 -177.397789 390.01756096 C-174.24658628 390.04633271 -171.09936657 390.02591983 -167.94828796 389.99327087 C-166.57873672 390.02341173 -166.57873672 390.02341173 -165.18151778 390.05416149 C-161.30422088 389.96837865 -158.93549274 389.78885607 -155.90823328 387.23611367 C-154.14001645 385.22761976 -152.55833154 383.17316228 -151 381 C-149.62795409 379.51809276 -148.25336951 378.03852727 -146.875 376.5625 C-77.91553609 299.9929085 -46.22867239 194.47893567 -51.4140625 92.74511719 C-53.11171479 65.621978 -57.75220622 37.98674607 -65.61523438 11.96386719 C-66.58240992 8.75521991 -67 6.41063931 -67 3 C-66.2678125 3.0721875 -65.535625 3.144375 -64.78125 3.21875 C-42.45662498 5.13228929 -21.70476314 0 0 0 Z " fill="#282463" transform="translate(950,406)"/>
<path d="M0 0 C1.17895844 -0.00067474 2.35791687 -0.00134949 3.57260132 -0.00204468 C22.45626924 0.01508373 40.89961956 0.69970569 59.625 3.25 C60.93049805 3.42160645 62.23599609 3.59321289 63.58105469 3.77001953 C93.90387076 7.80648346 126.73005852 13.37541162 154.625 26.25 C154.00379352 30.91355007 152.02930595 34.7288705 149.9375 38.875 C147.59974252 43.55153828 145.56260089 48.02827961 144.359375 53.1328125 C141.27583714 66.15740544 135.87612126 71.93841869 124.54443359 79.01757812 C122.54764405 80.2589278 122.54764405 80.2589278 120.50073242 81.90234375 C118.625 83.25 118.625 83.25 116.71484375 83.28125 C116.00457031 83.1059375 115.29429687 82.930625 114.5625 82.75 C113.675625 82.53988281 112.78875 82.32976562 111.875 82.11328125 C109.45655279 81.47088121 107.0402447 80.82219193 104.625 80.16796875 C73.98353055 71.87746215 42.41140476 66.76706769 10.625 66.25 C9.83561035 66.23485352 9.0462207 66.21970703 8.23291016 66.20410156 C2.6940496 66.1117309 -2.83662527 66.14083514 -8.375 66.25 C-9.11379395 66.26256836 -9.85258789 66.27513672 -10.61376953 66.28808594 C-52.07630977 67.17624527 -94.45988687 75.4456552 -133.16259766 90.16772461 C-140.8740196 93.03824627 -145.65570743 92.47007243 -153.1875 89.0625 C-161.7460485 85.37004408 -170.35994003 82.59538146 -179.375 80.25 C-180.3134375 80.0025 -181.251875 79.755 -182.21875 79.5 C-195.96028651 76.44632522 -212.8143887 76.30805895 -225.02734375 83.8984375 C-232.3553546 89.33803064 -237.36649365 95.88972989 -240.125 104.625 C-240.84276605 112.16154357 -241.12140476 119.43940616 -237.375 126.25 C-235.10955592 128.96933625 -232.75274871 131.49787568 -230.23828125 133.98828125 C-228.375 136.25 -228.375 136.25 -228.375 140.25 C-229.63745117 141.63110352 -229.63745117 141.63110352 -231.41796875 142.87890625 C-232.07321533 143.35086426 -232.72846191 143.82282227 -233.40356445 144.30908203 C-234.11601318 144.80520996 -234.82846191 145.30133789 -235.5625 145.8125 C-237.04137843 146.88091622 -238.51790963 147.95258824 -239.9921875 149.02734375 C-240.73307617 149.56601074 -241.47396484 150.10467773 -242.23730469 150.65966797 C-245.31910403 152.95236337 -248.2671239 155.3814068 -251.1875 157.875 C-251.70828125 158.3189209 -252.2290625 158.7628418 -252.765625 159.22021484 C-257.36306 163.17799416 -261.81394846 167.29135265 -266.23046875 171.44921875 C-268.375 173.25 -268.375 173.25 -270.375 173.25 C-270.63667969 173.84941406 -270.89835938 174.44882813 -271.16796875 175.06640625 C-272.44720188 177.38061764 -273.63750442 178.54659445 -275.6875 180.1875 C-284.90947269 187.81882443 -292.57315457 197.13473819 -300.0703125 206.421875 C-301.60499428 208.30511162 -303.16246429 210.17000778 -304.7421875 212.015625 C-311.88386003 220.36659032 -318.15940731 229.1989654 -324.375 238.25 C-324.808125 238.87245605 -325.24125 239.49491211 -325.6875 240.13623047 C-332.77993425 250.33437518 -338.99087629 260.97848378 -345.02783203 271.83007812 C-346.18464231 273.90805991 -347.35424062 275.9780804 -348.52734375 278.046875 C-378.01256781 331.34940683 -390.91566958 391.87685382 -393.375 452.25 C-393.41109375 453.10561523 -393.4471875 453.96123047 -393.484375 454.84277344 C-395.10293514 499.3734093 -386.60020619 545.21194888 -372.375 587.25 C-372.08786133 588.10287598 -371.80072266 588.95575195 -371.50488281 589.83447266 C-367.34485013 602.05597407 -362.48665946 613.81047947 -356.96801758 625.4831543 C-356.51579834 626.4400415 -356.0635791 627.39692871 -355.59765625 628.3828125 C-354.99062866 629.64955811 -354.99062866 629.64955811 -354.37133789 630.94189453 C-352.60430287 635.03538855 -352.60430287 635.03538855 -352.375 637.25 C-353.32788086 639.56152344 -353.32788086 639.56152344 -354.83984375 642.109375 C-355.38874268 643.05208252 -355.9376416 643.99479004 -356.50317383 644.96606445 C-357.10025146 645.96726318 -357.6973291 646.96846191 -358.3125 648 C-359.52626176 650.09081092 -360.73719665 652.18326543 -361.9453125 654.27734375 C-362.53731445 655.30069824 -363.12931641 656.32405273 -363.73925781 657.37841797 C-372.22791393 672.28044383 -379.26127462 688.24169275 -385.375 704.25 C-390.48601523 699.37981795 -394.23930092 693.87947768 -398.14697266 688.0546875 C-399.3358345 686.30755693 -400.55816494 684.58986682 -401.79296875 682.875 C-432.29538672 639.87658746 -447.71397632 579.90253522 -455.375 528.25 C-455.57109863 526.98478516 -455.76719727 525.71957031 -455.96923828 524.41601562 C-462.46215218 481.6647748 -462.13798991 435.94936398 -455.375 393.25 C-455.21164154 392.19601013 -455.21164154 392.19601013 -455.04498291 391.12072754 C-445.58506232 330.25163688 -424.20552657 272.92768769 -392.375 220.25 C-391.90288086 219.46592773 -391.43076172 218.68185547 -390.94433594 217.87402344 C-376.22728908 193.54053978 -358.52405712 171.22900115 -339.375 150.25 C-338.55773437 149.33992187 -337.74046875 148.42984375 -336.8984375 147.4921875 C-327.54862247 137.14947176 -317.90618447 126.83626698 -307.23828125 117.8359375 C-305.02028815 115.94808593 -302.89257845 113.97297208 -300.75 112 C-294.54939706 106.41378607 -287.99670457 101.32194392 -281.375 96.25 C-280.73224121 95.75564453 -280.08948242 95.26128906 -279.42724609 94.75195312 C-269.99520689 87.51552315 -260.37378657 80.68038845 -250.375 74.25 C-249.7572168 73.85103516 -249.13943359 73.45207031 -248.50292969 73.04101562 C-243.83630339 70.03948799 -239.12265316 67.12148748 -234.375 64.25 C-233.63137207 63.79931152 -232.88774414 63.34862305 -232.12158203 62.88427734 C-208.12213222 48.46454522 -182.76661112 36.56649645 -156.375 27.25 C-155.19083496 26.82879883 -154.00666992 26.40759766 -152.78662109 25.97363281 C-121.02024805 14.76787028 -88.56486176 7.05147221 -55.125 3 C-54.4390274 2.91682526 -53.75305481 2.83365051 -53.04629517 2.74795532 C-35.30546351 0.62522337 -17.85147382 0.00919095 0 0 Z " fill="#292564" transform="translate(503.375,63.75)"/>
<path d="M0 0 C337.92 0 675.84 0 1024 0 C1024 337.92 1024 675.84 1024 1024 C686.08 1024 348.16 1024 0 1024 C0 686.08 0 348.16 0 0 Z M1 1 C1 338.26 1 675.52 1 1023 C338.26 1023 675.52 1023 1023 1023 C1023 685.74 1023 348.48 1023 1 C685.74 1 348.48 1 1 1 Z " fill="#4F4D4E" transform="translate(0,0)"/>
<path d="M0 0 C0 3 0 3 -1.13891602 4.49967957 C-1.67186279 5.02596451 -2.20480957 5.55224945 -2.75390625 6.09448242 C-3.35452881 6.69487839 -3.95515137 7.29527435 -4.57397461 7.91386414 C-5.23018799 8.55459366 -5.88640137 9.19532318 -6.5625 9.85546875 C-7.22838135 10.51710526 -7.8942627 11.17874176 -8.58032227 11.86042786 C-10.71329379 13.9765774 -12.8564491 16.08207266 -15 18.1875 C-16.44599425 19.61845203 -17.89131571 21.05008428 -19.3359375 22.48242188 C-22.8828599 25.99622824 -26.43895178 29.50051246 -30 33 C-30.66 32.67 -31.32 32.34 -32 32 C-26.52705169 25.67570417 -20.77886192 19.67024637 -14.875 13.75 C-14.20662109 13.07710937 -13.53824219 12.40421875 -12.84960938 11.7109375 C-8.72292538 7.5964506 -4.47026669 3.7387685 0 0 Z " fill="#524F7F" transform="translate(197,181)"/>
<path d="M0 0 C0 3 0 3 -1.8359375 5.17651367 C-2.67382812 5.99869385 -3.51171875 6.82087402 -4.375 7.66796875 C-5.27734375 8.56064453 -6.1796875 9.45332031 -7.109375 10.37304688 C-8.0727573 11.31136157 -9.03630108 12.2495105 -10 13.1875 C-10.96422346 14.13667769 -11.92777392 15.08653956 -12.890625 16.03710938 C-15.25386746 18.36490319 -17.62381482 20.68543133 -20 23 C-20.66 22.67 -21.32 22.34 -22 22 C-5.28846154 3.59615385 -5.28846154 3.59615385 0 0 Z " fill="#68C6CE" transform="translate(226,655)"/>
<path d="M0 0 C0 3 0 3 -1.51293945 4.88525391 C-2.20605225 5.57538574 -2.89916504 6.26551758 -3.61328125 6.9765625 C-4.36673828 7.729375 -5.12019531 8.4821875 -5.89648438 9.2578125 C-6.69376953 10.03898438 -7.49105469 10.82015625 -8.3125 11.625 C-9.49102539 12.80835938 -9.49102539 12.80835938 -10.69335938 14.015625 C-16.59953941 19.86651314 -16.59953941 19.86651314 -20 21 C-18.62086608 17.89876165 -17.03187407 15.78491785 -14.62890625 13.3984375 C-13.64374023 12.41617188 -13.64374023 12.41617188 -12.63867188 11.4140625 C-11.95353516 10.74117187 -11.26839844 10.06828125 -10.5625 9.375 C-9.88123047 8.694375 -9.19996094 8.01375 -8.49804688 7.3125 C-5.74387876 4.58260957 -3.2382409 2.15882726 0 0 Z " fill="#4A8DC7" transform="translate(640,168)"/>
<path d="M0 0 C0.66 0.33 1.32 0.66 2 1 C-4.27 7.27 -10.54 13.54 -17 20 C-17.66 19.67 -18.32 19.34 -19 19 C-13.0763504 12.14630879 -6.85369121 5.9236496 0 0 Z " fill="#6DC7CF" transform="translate(265,280)"/>
<path d="M0 0 C0.59474121 0.21873779 1.18948242 0.43747559 1.80224609 0.6628418 C1.32916016 1.06374023 0.85607422 1.46463867 0.36865234 1.87768555 C-4.44245236 6.01354748 -8.92514595 10.35919691 -13.31494141 14.94018555 C-15.19775391 16.6628418 -15.19775391 16.6628418 -17.19775391 16.6628418 C-15.17474444 12.22657626 -12.21907632 9.2803282 -8.82275391 5.8503418 C-7.95650391 4.93478516 -7.95650391 4.93478516 -7.07275391 4.00073242 C-6.50814453 3.4290332 -5.94353516 2.85733398 -5.36181641 2.26831055 C-4.85086426 1.74390381 -4.33991211 1.21949707 -3.81347656 0.67919922 C-2.19775391 -0.3371582 -2.19775391 -0.3371582 0 0 Z " fill="#5191C9" transform="translate(727.19775390625,51.337158203125)"/>
<path d="M0 0 C-1.58561638 3.85593074 -4.06509954 6.33216291 -7 9.25 C-7.886875 10.14203125 -8.77375 11.0340625 -9.6875 11.953125 C-12 14 -12 14 -14 14 C-12.49559933 10.57592139 -10.49408648 8.08625426 -8 5.3125 C-7.29875 4.52488281 -6.5975 3.73726563 -5.875 2.92578125 C-3.8397239 0.83538309 -2.92738609 0 0 0 Z " fill="#6EC7CF" transform="translate(265,317)"/>
</svg>
